<svg xmlns="http://www.w3.org/2000/svg" viewBox="0 0 403 285"><defs><style>.cls-1{fill:#fff;}.cls-2{fill:#020202;}</style></defs><title>Asset 13</title><g id="Layer_2" data-name="Layer 2"><g id="Layer_1-2" data-name="Layer 1"><rect class="cls-1" width="403" height="285"/><path class="cls-1" d="M236.19,203.79c3,.39,6.21.91,9.48,1.23,4.55.45,9.11,1,13.67,1,3.81,0,7.25-1.32,9-5.12s.63-7.12-1.88-9.93a51.94,51.94,0,0,0-8.31-7.87c-11.45-8.16-23.06-16.09-34.69-24a8.41,8.41,0,0,0-4.44-1.24q-17.49-.15-35,0a9.44,9.44,0,0,0-4.88,1.45c-10.31,6.88-20.64,13.74-30.68,21a96.74,96.74,0,0,0-12.34,11.19,7.94,7.94,0,0,0-1.55,9.28c1.79,3.91,5.28,5.31,9.2,5.24,4.72-.09,9.44-.7,14.15-1.16,3.07-.3,6.13-.72,8.93-1-.4,2.16-1.18,4-1,5.8.48,4.79,5.45,7.21,10,5.11,6.25-2.9,12.52-5.76,18.75-8.71a15.16,15.16,0,0,1,13.65,0c6.07,2.88,12.23,5.58,18.27,8.54,4.62,2.27,9.62.37,10.51-4.55C237.4,208.12,236.55,206,236.19,203.79Z"/><path class="cls-1" d="M223.37,94.49c.68,5.74,1.22,11.21,2,16.64,1.76,12.56,5.48,24.45,12.44,35.21,7.38,11.41,16.87,21,26.3,30.61a6.82,6.82,0,0,0,9.87.19c2.93-3,2.72-6.86-.44-10.17-4.49-4.69-9-9.38-13.38-14.14-10.49-11.35-18.21-24.2-20.48-39.74-1.2-8.22-1.87-16.52-2.76-24.79-.59-5.51-2.94-7.74-8.39-7.75q-27.12,0-54.23,0c-5,0-7.44,2.1-8,7-.82,7-1.46,14.06-2.2,21.08-1.79,17-9.26,31.26-20.68,43.65C139,157,134.46,161.68,130,166.36c-2,2-3.58,4.25-2.85,7.3,1.35,5.63,7.71,7.33,11.92,3.06,5.43-5.51,10.82-11.08,15.94-16.87,8.91-10.07,16.39-21.15,19.55-34.37,2.25-9.42,3.34-19.13,4.75-28.74.28-1.87.88-2.29,2.63-2.28,13.24.06,26.49,0,39.73,0Z"/><path class="cls-2" d="M201.43,17.28A25.61,25.61,0,1,0,227.11,43,25.61,25.61,0,0,0,201.43,17.28Z"/><path d="M236.19,203.79c.36,2.25,1.21,4.33.88,6.2-.89,4.92-5.89,6.82-10.51,4.55-6-3-12.2-5.66-18.27-8.54a15.16,15.16,0,0,0-13.65,0c-6.23,3-12.5,5.81-18.75,8.71-4.55,2.1-9.52-.32-10-5.11-.17-1.77.61-3.64,1-5.8-2.8.33-5.86.75-8.93,1-4.71.46-9.43,1.07-14.15,1.16-3.92.07-7.41-1.33-9.2-5.24a7.94,7.94,0,0,1,1.55-9.28,96.74,96.74,0,0,1,12.34-11.19c10-7.26,20.37-14.12,30.68-21a9.44,9.44,0,0,1,4.88-1.45q17.49-.18,35,0a8.41,8.41,0,0,1,4.44,1.24c11.63,7.91,23.24,15.84,34.69,24a51.94,51.94,0,0,1,8.31,7.87c2.51,2.81,3.62,6.2,1.88,9.93s-5.22,5.15-9,5.12c-4.56,0-9.12-.57-13.67-1C242.4,204.7,239.15,204.18,236.19,203.79Zm-78.28-13.36.31.54c2.3-.27,4.61-.51,6.91-.81,11.25-1.49,22.5-2.45,33.83-.73a18.51,18.51,0,0,0,5.46,0c8.63-1.32,17.26-1,25.89-.08,4.84.51,9.68,1.07,14.51,1.61a2.39,2.39,0,0,0-1.18-1.62q-12.69-8.64-25.42-17.21a5.32,5.32,0,0,0-2.82-.72q-13.86-.09-27.73,0a6.31,6.31,0,0,0-3.26.94c-6.67,4.38-13.29,8.85-19.9,13.34C162.26,187.18,160.11,188.84,157.91,190.43Z"/><path d="M223.37,94.49h-1.73c-13.24,0-26.49,0-39.73,0-1.75,0-2.35.41-2.63,2.28-1.41,9.61-2.5,19.32-4.75,28.74-3.16,13.22-10.64,24.3-19.55,34.37-5.12,5.79-10.51,11.36-15.94,16.87-4.21,4.27-10.57,2.57-11.92-3.06-.73-3,.88-5.25,2.85-7.3,4.49-4.68,9-9.32,13.42-14.09,11.42-12.39,18.89-26.68,20.68-43.65.74-7,1.38-14.06,2.2-21.08.57-4.89,3-7,8-7q27.12,0,54.23,0c5.45,0,7.8,2.24,8.39,7.75.89,8.27,1.56,16.57,2.76,24.79,2.27,15.54,10,28.39,20.48,39.74,4.41,4.76,8.89,9.45,13.38,14.14,3.16,3.31,3.37,7.2.44,10.17a6.82,6.82,0,0,1-9.87-.19c-9.43-9.62-18.92-19.2-26.3-30.61-7-10.76-10.68-22.65-12.44-35.21C224.59,105.7,224.05,100.23,223.37,94.49Z"/><path class="cls-1" d="M157.91,190.43c2.2-1.59,4.35-3.25,6.6-4.77,6.61-4.49,13.23-9,19.9-13.34a6.31,6.31,0,0,1,3.26-.94q13.86-.12,27.73,0a5.32,5.32,0,0,1,2.82.72q12.76,8.53,25.42,17.21a2.39,2.39,0,0,1,1.18,1.62c-4.83-.54-9.67-1.1-14.51-1.61-8.63-.91-17.26-1.24-25.89.08a18.51,18.51,0,0,1-5.46,0c-11.33-1.72-22.58-.76-33.83.73-2.3.3-4.61.54-6.91.81Z"/></g></g></svg>