<svg xmlns="http://www.w3.org/2000/svg" xmlns:xlink="http://www.w3.org/1999/xlink" viewBox="0 0 190.5 190.63"><defs><style>.cls-1{fill:none;}.cls-2{clip-path:url(#clip-path);}.cls-3{fill:#fff;}</style><clipPath id="clip-path" transform="translate(-22.8 -19.3)"><rect class="cls-1" width="242.39" height="242.39"/></clipPath></defs><title>black-2383773_1920.psd</title><g id="Layer_2" data-name="Layer 2"><g id="Layer_1-2" data-name="Layer 1"><g id="black-2383773_1920.psd"><g class="cls-2"><path class="cls-3" d="M22.8,209.92V19.3H213.3V209.92ZM128,58.84h0c0,1.1,0,2.19,0,3.29s-.31,1.45-1.22,1.63a6.06,6.06,0,0,0-2.84,1.84,5,5,0,0,0-1.67,2.54c-.08.33-.3.75-.76.46a6.55,6.55,0,0,1-1.27-1.08c-.82-.92-1.58-1.89-2.38-2.82s-1.48-1.6-2.11-2.47a1.63,1.63,0,0,0-1.21-.77,3.94,3.94,0,0,0-2.3.51,5.47,5.47,0,0,1-1.33.51c-1,.27-2,.49-3,.75a21.3,21.3,0,0,0-2.76.79c-1.48.61-2.91,1.34-4.37,2l-.39.2-2,1-.57.25c-1.14.45-2.27.93-3.42,1.36-.68.26-1.41.39-2.07.68a7.66,7.66,0,0,0-1.46,1c-.65.51-1.34,1-1.17,2A1.89,1.89,0,0,1,89,73.82a1,1,0,0,1-1.38,0c-.46-.34-.64,0-.72.36a4,4,0,0,0,0,.69c-.07,1.32-.05,2.65-.24,4s-.74,2.68-.83,4A28.36,28.36,0,0,0,86,88.28a29,29,0,0,1,.62,5.1,43.76,43.76,0,0,0-.12,4.72c.09,1.76-.68,3.21-1.32,4.73a11.43,11.43,0,0,0-.47,1.54c-.22.74-.41,1.48-.63,2.22-.11.39-.33.76-.4,1.15-.17,1-.22,1.92-.43,2.85-.45,2-1.08,4-1.43,6a30.09,30.09,0,0,0-.2,4.46,5.06,5.06,0,0,0,2.33,4.1,5.6,5.6,0,0,0,2.85,1.29c1.64.15,3.26.53,4.89.77,1.2.18,2.41.27,3.61.46.91.14,1.79.46,2.7.56,1.93.23,3.87.45,5.82.52,1.54.06,3.1-.14,4.65-.17,1.24,0,1.72.26,1.82,1.45a8.62,8.62,0,0,1,0,.88c0,4.7-.12,9.4-.58,14.09-.22,2.17-.15,4.37-.17,6.56a23.2,23.2,0,0,1-.71,7,20,20,0,0,0-.63,4.4,27.06,27.06,0,0,0-.12,3.71c.06,1.53.26,3,.41,4.57.09.94.15,1.88.31,2.8a15,15,0,0,1,.56,1.72c.19,3.39.32,6.79.44,10.19a7.78,7.78,0,0,1-.92,4,4,4,0,0,0-.36,1.83,1.76,1.76,0,0,0,.49,1.23,4.19,4.19,0,0,0,3.39,1.17c.52-.1,1-.23,1.54-.33a9.15,9.15,0,0,1,4.87,0,12.26,12.26,0,0,0,6.44.29c.54-.09,1.07-.15,1.61-.22a4.54,4.54,0,0,0,1.29-.24c.3-.14.69-.58.65-.83a.61.61,0,0,0-1-.37,1,1,0,0,1-.44.05,5.29,5.29,0,0,1-2.79-.83c-1.14-.58-2.24-1.22-3.35-1.84s-2.08-1.15-3.1-1.76a3.36,3.36,0,0,1-1.16-.89,8.75,8.75,0,0,1-1.08-2.32c-.27-1-.31-2.1-.48-3.15-.38-2.32-.85-4.64,0-7a.52.52,0,0,0,0-.18c.14-4.24.31-8.48.42-12.72a7,7,0,0,1,.61-3.42,2,2,0,0,0,.13-.42c.31-1.08.63-2.16.94-3.24a7.54,7.54,0,0,0,.27-.89,17.18,17.18,0,0,1,.83-4.09c.72-1.78,1.41-3.56,2.18-5.31a18.89,18.89,0,0,0,1.29-3.26c.47-2,1.31-3.82,1.45-5.87.06-.89.51-1.75.57-2.64.14-1.81.1-3.65.21-5.47a2.8,2.8,0,0,1,.54-1.61A6.52,6.52,0,0,1,127.3,124a20.18,20.18,0,0,0,4-2.66,9.73,9.73,0,0,0,3.09-3.54c0-.08.12-.12.17-.19.54-.88,1.11-1.74,1.6-2.64s1-2,1.53-3,1.33-2.16,2-3.24a3.74,3.74,0,0,0,.27-.42c.27-.54.55-1.07.78-1.61.14-.31.14-.67.3-1a7.45,7.45,0,0,0,.73-3.47c.08-2,.22-3.94.31-5.91a5.31,5.31,0,0,0-.08-1c-.18-1.38-1.22-2.24-2.08-3.14-1.26-1.31-2.71-2.43-4.09-3.62a12.43,12.43,0,0,1-2.32-2.43,1.39,1.39,0,0,1-.28-.69c-.08-1.15-.15-2.3-.16-3.45,0-.71.38-1.06,1.11-1.09a9.74,9.74,0,0,1,1.32.08,1.34,1.34,0,0,0,1.58-1.12c.06-.29.18-.56.22-.85a9.44,9.44,0,0,0,.24-2.09,1.58,1.58,0,0,1,.41-1.43c.37-.33.29-.61.05-1a23.56,23.56,0,0,1-1.17-2.08,1.25,1.25,0,0,1-.08-.72c.28-1.47-.43-2.7-1-3.94a5.36,5.36,0,0,0-1.5-2.34.42.42,0,0,1-.11-.22,17.41,17.41,0,0,1-.76-2.85,64,64,0,0,0-1.48-7.16c-.15-.69-.58-1.32-.7-2-.24-1.33-.4-2.69-.51-4-.17-2,.26-4.12-.57-6.11-.55-1.3-1-2.66-1.5-4-.08-.2-.36-.32-.55-.48a16.38,16.38,0,0,1-1.38-1.25c-.26-.29-.38-.67-.87-.5s-.38.56-.34.9c.11,1,.24,1.95.38,2.92s0,1.21-1,1.27c-.56,0-.71.29-.43.77a9,9,0,0,1,.6,1c.37.85.21,1.17-.66,1.4a5,5,0,0,1-.56.07c-.4,0-.64.29-.39.64a12,12,0,0,0,1.32,1.45,11.93,11.93,0,0,1,1.88,1.8,7.9,7.9,0,0,1,1.25,4Q127.93,55.92,128,58.84Z" transform="translate(-22.8 -19.3)"/><path d="M128,58.84q-.09-2.93-.19-5.86a7.9,7.9,0,0,0-1.25-4,11.93,11.93,0,0,0-1.88-1.8,12,12,0,0,1-1.32-1.45c-.25-.35,0-.59.39-.64a5,5,0,0,0,.56-.07c.87-.23,1-.55.66-1.4a9,9,0,0,0-.6-1c-.28-.48-.13-.73.43-.77,1-.06,1.17-.31,1-1.27s-.27-1.94-.38-2.92c0-.34-.13-.74.34-.9s.61.21.87.5a16.38,16.38,0,0,0,1.38,1.25c.19.16.47.28.55.48.52,1.32,1,2.68,1.5,4,.83,2,.4,4.07.57,6.11.11,1.35.27,2.71.51,4,.12.69.55,1.32.7,2a64,64,0,0,1,1.48,7.16,17.41,17.41,0,0,0,.76,2.85.42.42,0,0,0,.11.22,5.36,5.36,0,0,1,1.5,2.34c.56,1.24,1.27,2.47,1,3.94a1.25,1.25,0,0,0,.08.72A23.56,23.56,0,0,0,138,74.45c.24.37.32.65-.05,1a1.58,1.58,0,0,0-.41,1.43,9.44,9.44,0,0,1-.24,2.09c0,.29-.16.56-.22.85a1.34,1.34,0,0,1-1.58,1.12,9.74,9.74,0,0,0-1.32-.08c-.73,0-1.12.38-1.11,1.09,0,1.15.08,2.3.16,3.45a1.39,1.39,0,0,0,.28.69,12.43,12.43,0,0,0,2.32,2.43c1.38,1.19,2.83,2.31,4.09,3.62.86.9,1.9,1.76,2.08,3.14a5.31,5.31,0,0,1,.08,1c-.09,2-.23,3.94-.31,5.91a7.45,7.45,0,0,1-.73,3.47c-.16.28-.16.64-.3,1-.23.54-.51,1.07-.78,1.61a3.74,3.74,0,0,1-.27.42c-.66,1.08-1.37,2.14-2,3.24s-1,2-1.53,3-1.06,1.76-1.6,2.64c0,.07-.13.11-.17.19a9.73,9.73,0,0,1-3.09,3.54,20.18,20.18,0,0,1-4,2.66,6.52,6.52,0,0,0-2.41,1.77,2.8,2.8,0,0,0-.54,1.61c-.11,1.82-.07,3.66-.21,5.47-.06.89-.51,1.75-.57,2.64-.14,2.05-1,3.91-1.45,5.87a18.89,18.89,0,0,1-1.29,3.26c-.77,1.75-1.46,3.53-2.18,5.31a17.18,17.18,0,0,0-.83,4.09,7.54,7.54,0,0,1-.27.89c-.31,1.08-.63,2.16-.94,3.24a2,2,0,0,1-.13.42,7,7,0,0,0-.61,3.42c-.11,4.24-.28,8.48-.42,12.72a.52.52,0,0,1,0,.18c-.85,2.32-.38,4.64,0,7,.17,1,.21,2.13.48,3.15a8.75,8.75,0,0,0,1.08,2.32,3.36,3.36,0,0,0,1.16.89c1,.61,2.06,1.18,3.1,1.76s2.21,1.26,3.35,1.84a5.29,5.29,0,0,0,2.79.83,1,1,0,0,0,.44-.05.61.61,0,0,1,1,.37c0,.25-.35.69-.65.83a4.54,4.54,0,0,1-1.29.24c-.54.07-1.07.13-1.61.22a12.26,12.26,0,0,1-6.44-.29,9.15,9.15,0,0,0-4.87,0c-.51.1-1,.23-1.54.33a4.19,4.19,0,0,1-3.39-1.17,1.76,1.76,0,0,1-.49-1.23,4,4,0,0,1,.36-1.83,7.78,7.78,0,0,0,.92-4c-.12-3.4-.25-6.8-.44-10.19a15,15,0,0,0-.56-1.72c-.16-.92-.22-1.86-.31-2.8-.15-1.52-.35-3-.41-4.57a27.06,27.06,0,0,1,.12-3.71,20,20,0,0,1,.63-4.4,23.2,23.2,0,0,0,.71-7c0-2.19,0-4.39.17-6.56.46-4.69.53-9.39.58-14.09a8.62,8.62,0,0,0,0-.88c-.1-1.19-.58-1.48-1.82-1.45-1.55,0-3.11.23-4.65.17-2-.07-3.89-.29-5.82-.52-.91-.1-1.79-.42-2.7-.56-1.2-.19-2.41-.28-3.61-.46-1.63-.24-3.25-.62-4.89-.77a5.6,5.6,0,0,1-2.85-1.29,5.06,5.06,0,0,1-2.33-4.1,30.09,30.09,0,0,1,.2-4.46c.35-2,1-4,1.43-6,.21-.93.26-1.9.43-2.85.07-.39.29-.76.4-1.15.22-.74.41-1.48.63-2.22a11.43,11.43,0,0,1,.47-1.54c.64-1.52,1.41-3,1.32-4.73a43.76,43.76,0,0,1,.12-4.72,29,29,0,0,0-.62-5.1,28.36,28.36,0,0,1-.13-5.45c.09-1.36.64-2.68.83-4s.17-2.63.24-4a4,4,0,0,1,0-.69c.08-.4.26-.7.72-.36a1,1,0,0,0,1.38,0,1.89,1.89,0,0,0,.59-1.35c-.17-1.07.52-1.51,1.17-2a7.66,7.66,0,0,1,1.46-1c.66-.29,1.39-.42,2.07-.68,1.15-.43,2.28-.91,3.42-1.36l.57-.25,2-1,.39-.2c1.46-.68,2.89-1.41,4.37-2a21.3,21.3,0,0,1,2.76-.79c1-.26,2-.48,3-.75a5.47,5.47,0,0,0,1.33-.51,3.94,3.94,0,0,1,2.3-.51,1.63,1.63,0,0,1,1.21.77c.63.87,1.41,1.64,2.11,2.47s1.56,1.9,2.38,2.82a6.55,6.55,0,0,0,1.27,1.08c.46.29.68-.13.76-.46a5,5,0,0,1,1.67-2.54,6.06,6.06,0,0,1,2.84-1.84c.91-.18,1.2-.64,1.22-1.63s0-2.19,0-3.29ZM125.5,96.73a5.76,5.76,0,0,0-.61-3,12.81,12.81,0,0,1-1.23-2.93,21.24,21.24,0,0,1-.27-2.43,5.15,5.15,0,0,0-.48-1.65,15.71,15.71,0,0,1-1.71-3.31,11,11,0,0,1-.89-3.56c.08-1.47-.86-2.4-1.54-3.46-.49-.77-1.18-1.4-1.7-2.16-.82-1.21-1.53-2.49-2.37-3.69a3.78,3.78,0,0,0-1.48-1.39,6.66,6.66,0,0,0-2.87-.51,27.16,27.16,0,0,0-6.73,1.13A33.68,33.68,0,0,0,99.45,71a8,8,0,0,0-2.3,1.46c-.52.54-.91,1.23-1.47,1.71a30.22,30.22,0,0,1-2.82,2.09,10.39,10.39,0,0,1-2.08,1.11c-1.1.42-1.29.64-1,1.81.34,1.35.67,2.72,1.12,4a18.18,18.18,0,0,0,2,3.22c.64.77,1.33,1.49,2,2.27a1.43,1.43,0,0,1-.16,1.73c-.33.29-.64.7-1,.8A3.94,3.94,0,0,0,91.45,93a1.91,1.91,0,0,0-.36.78A14.3,14.3,0,0,0,91,95.89c0,2.2.08,4.41.13,6.61a1.62,1.62,0,0,0,.16.8,3.91,3.91,0,0,1,.4,2.37c0,.38,0,.76,0,1.13,0,1.89.07,3.78,0,5.66a4,4,0,0,1-.42,1.3c-.27.77-.56,1.53-.82,2.3a.82.82,0,0,0,0,.43,1.37,1.37,0,0,0,1.56.87c2-.17,3.92-.38,5.88-.46s3.62,0,5.43,0a9.38,9.38,0,0,0,2.36-.31,22.35,22.35,0,0,0,2.53-1.08.72.72,0,0,0,.15-.11c.65-.72,1.29-1.46,2-2.15a8.05,8.05,0,0,1,1.72-1.59,7.09,7.09,0,0,1,3.46-1.36c1.66,0,3.31-.19,4.88.56a2.54,2.54,0,0,0,2.42,0,5.53,5.53,0,0,0,1-.51c.59-.48,1.34-.94,1.62-1.58a8.34,8.34,0,0,0,.51-2.87c0-.89-.19-1.79-.24-2.68C125.67,101,125.59,98.87,125.5,96.73Z" transform="translate(-22.8 -19.3)"/><path class="cls-3" d="M125.5,96.73c.09,2.14.17,4.28.28,6.42,0,.89.27,1.79.24,2.68a8.34,8.34,0,0,1-.51,2.87c-.28.64-1,1.1-1.62,1.58a5.53,5.53,0,0,1-1,.51,2.54,2.54,0,0,1-2.42,0c-1.57-.75-3.22-.57-4.88-.56a7.09,7.09,0,0,0-3.46,1.36,8.05,8.05,0,0,0-1.72,1.59c-.68.69-1.32,1.43-2,2.15a.72.72,0,0,1-.15.11,22.35,22.35,0,0,1-2.53,1.08,9.38,9.38,0,0,1-2.36.31c-1.81,0-3.62-.05-5.43,0s-3.92.29-5.88.46a1.37,1.37,0,0,1-1.56-.87.82.82,0,0,1,0-.43c.26-.77.55-1.53.82-2.3a4,4,0,0,0,.42-1.3c0-1.88,0-3.77,0-5.66,0-.37,0-.75,0-1.13a3.91,3.91,0,0,0-.4-2.37,1.62,1.62,0,0,1-.16-.8c0-2.2-.11-4.41-.13-6.61a14.3,14.3,0,0,1,.14-2.07,1.91,1.91,0,0,1,.36-.78,3.94,3.94,0,0,1,2.21-1.81c.38-.1.69-.51,1-.8a1.43,1.43,0,0,0,.16-1.73c-.63-.78-1.32-1.5-2-2.27a18.18,18.18,0,0,1-2-3.22c-.45-1.32-.78-2.69-1.12-4-.3-1.17-.11-1.39,1-1.81a10.39,10.39,0,0,0,2.08-1.11,30.22,30.22,0,0,0,2.82-2.09c.56-.48.95-1.17,1.47-1.71A8,8,0,0,1,99.45,71a33.68,33.68,0,0,1,4.17-1.25,27.16,27.16,0,0,1,6.73-1.13,6.66,6.66,0,0,1,2.87.51,3.78,3.78,0,0,1,1.48,1.39c.84,1.2,1.55,2.48,2.37,3.69.52.76,1.21,1.39,1.7,2.16.68,1.06,1.62,2,1.54,3.46a11,11,0,0,0,.89,3.56,15.71,15.71,0,0,0,1.71,3.31,5.15,5.15,0,0,1,.48,1.65,21.24,21.24,0,0,0,.27,2.43,12.81,12.81,0,0,0,1.23,2.93A5.76,5.76,0,0,1,125.5,96.73Z" transform="translate(-22.8 -19.3)"/></g></g></g></g></svg>