<svg xmlns="http://www.w3.org/2000/svg" viewBox="0 0 118.64 123.1"><defs><style>.cls-1{fill:#fff;stroke:#000;}.cls-2{stroke:#fff;}</style></defs><title>Asset 1</title><g id="Layer_2" data-name="Layer 2"><g id="Layer_1-2" data-name="Layer 1"><path class="cls-1" d="M3.64,122.3V116l-3.1-6.3c-.1-.1,0-.2.1-.2s.2,0,.2.1l3,6,3-6c.1-.1.1-.1.2-.1s.1.1.1.2L4,116v6.3a.2.2,0,1,1-.4,0Z"/><path class="cls-1" d="M9.24,120.8a3.53,3.53,0,0,1-.4-1.7v-6.3a3.53,3.53,0,0,1,.4-1.7,3,3,0,0,1,2.9-1.7,2.94,2.94,0,0,1,2.9,1.7,3.53,3.53,0,0,1,.4,1.7v6.3a3.53,3.53,0,0,1-.4,1.7,3,3,0,0,1-2.9,1.7A2.94,2.94,0,0,1,9.24,120.8Zm.3-9.5a2.82,2.82,0,0,0-.4,1.5v6.3a2.82,2.82,0,0,0,.4,1.5,2.62,2.62,0,0,0,2.6,1.4,2.79,2.79,0,0,0,2.6-1.4,2.82,2.82,0,0,0,.4-1.5v-6.3a2.82,2.82,0,0,0-.4-1.5,2.62,2.62,0,0,0-2.6-1.4A2.48,2.48,0,0,0,9.54,111.3Z"/><path class="cls-1" d="M20.44,122.5a3,3,0,0,1-2.9-1.7,3.53,3.53,0,0,1-.4-1.7v-6.3a3.53,3.53,0,0,1,.4-1.7,3,3,0,0,1,2.9-1.7h3.2a.2.2,0,0,1,0,.4h-3.2a2.79,2.79,0,0,0-2.6,1.4,2.82,2.82,0,0,0-.4,1.5V119a2.82,2.82,0,0,0,.4,1.5,2.62,2.62,0,0,0,2.6,1.4h3v-6h-3a.2.2,0,0,1,0-.4h3.2a.22.22,0,0,1,.2.2V122a.22.22,0,0,1-.2.2h-3.2Z"/><path class="cls-1" d="M32.14,122.3c0,.1,0,.2-.1.2h0c-.1,0-.1,0-.2-.1l-1.5-6.2h-2.9l-1.6,6.2c0,.1-.1.1-.2.1h0c-.1,0-.2-.1-.1-.2l1.6-6.3h0l1.6-6.3c0-.1.1-.1.2-.1s.2,0,.2.1l1.6,6.3h0Zm-1.9-6.5-1.4-5.5-1.4,5.5Z"/><path class="cls-1" d="M47.94,122.3l-3-12-3,12c0,.1-.1.1-.2.1s-.1,0-.2-.1l-3.1-12.6c0-.1,0-.2.1-.2s.2,0,.2.1l3,12,3-12c0-.1.1-.1.2-.1s.1,0,.2.1l3,12,3-12c0-.1.1-.2.2-.1s.2.1.1.2l-3.2,12.7c0,.1-.1.1-.2.1S47.94,122.4,47.94,122.3Z"/><path class="cls-1" d="M59.74,122.3c0,.1,0,.2-.1.2h0c-.1,0-.1,0-.2-.1l-1.5-6.2H55l-1.6,6.2c0,.1-.1.1-.2.1h0c-.1,0-.2-.1-.1-.2l1.6-6.3h0l1.6-6.3c0-.1.1-.1.2-.1s.2,0,.2.1l1.6,6.3h0Zm-1.9-6.5-1.4-5.5L55,115.8Z"/><path class="cls-1" d="M67.74,122.4l-6-12v11.9a.2.2,0,0,1-.4,0V109.6c0-.1,0-.1.1-.2s.2,0,.2.1l6,12V109.6a.2.2,0,0,1,.4,0v12.7c0,.1,0,.1-.1.2h0A.35.35,0,0,1,67.74,122.4Z"/><path class="cls-1" d="M69.84,122.5a.22.22,0,0,1-.2-.2V109.6a.22.22,0,0,1,.2-.2H73a3.53,3.53,0,0,1,1.7.4,3,3,0,0,1,1.7,2.9V119a3,3,0,0,1-1.7,2.9,3.53,3.53,0,0,1-1.7.4h-3.2Zm.2-.4h3a2.82,2.82,0,0,0,1.5-.4,2.62,2.62,0,0,0,1.4-2.6v-6.3a2.79,2.79,0,0,0-1.4-2.6,2.82,2.82,0,0,0-1.5-.4H70Z"/><path class="cls-1" d="M78.14,122.5a.22.22,0,0,1-.2-.2V109.6a.22.22,0,0,1,.2-.2h6.3a.2.2,0,1,1,0,.4h-6.2v6h3a.2.2,0,1,1,0,.4h-3v6h6.2a.2.2,0,1,1,0,.4h-6.3Z"/><path class="cls-1" d="M92.74,122.4l-6-6v5.9a.2.2,0,1,1-.4,0V109.6a.22.22,0,0,1,.2-.2h3.2a3.53,3.53,0,0,1,1.7.4,3,3,0,0,1,1.7,2.9,2.94,2.94,0,0,1-1.7,2.9,3.53,3.53,0,0,1-1.7.4H87l6,6c.1.1.1.2,0,.2l-.1.1S92.74,122.5,92.74,122.4Zm-6.1-6.6h3a2.82,2.82,0,0,0,1.5-.4,3,3,0,0,0,0-5.2,2.82,2.82,0,0,0-1.5-.4h-3Z"/><path class="cls-1" d="M94.84,122.5a.22.22,0,0,1-.2-.2V109.6a.22.22,0,0,1,.2-.2h6.3a.2.2,0,0,1,0,.4h-6.2v6h3a.2.2,0,0,1,0,.4h-3v6h6.2a.2.2,0,1,1,0,.4h-6.3Z"/><path class="cls-1" d="M109.34,122.4l-6-6v5.9a.2.2,0,0,1-.4,0V109.6a.22.22,0,0,1,.2-.2h3.2a3.53,3.53,0,0,1,1.7.4,3,3,0,0,1,1.7,2.9,2.94,2.94,0,0,1-1.7,2.9,3.53,3.53,0,0,1-1.7.4h-2.7l6,6c.1.1.1.2,0,.2l-.1.1S109.44,122.5,109.34,122.4Zm-6-6.6h3a2.82,2.82,0,0,0,1.5-.4,3,3,0,0,0,0-5.2,2.82,2.82,0,0,0-1.5-.4h-3Z"/><path class="cls-1" d="M111.54,122.5a.2.2,0,0,1,0-.4h3.2a2.82,2.82,0,0,0,1.5-.4,3,3,0,0,0,0-5.2,2.82,2.82,0,0,0-1.5-.4,3.53,3.53,0,0,1-1.7-.4,3.32,3.32,0,0,1,0-5.8,3.53,3.53,0,0,1,1.7-.4h3.2a.2.2,0,0,1,0,.4h-3.2a2.82,2.82,0,0,0-1.5.4,2.62,2.62,0,0,0-1.4,2.6,2.79,2.79,0,0,0,1.4,2.6,2.82,2.82,0,0,0,1.5.4,3.53,3.53,0,0,1,1.7.4,3.32,3.32,0,0,1,0,5.8,3.53,3.53,0,0,1-1.7.4Z"/><path class="cls-2" d="M58.14,86.2V44.3l-20.9-42c-.4-.7-.2-1.2.5-1.6s1.2-.2,1.6.5l20.1,40.1,20-40.1A1.09,1.09,0,0,1,81,.7c.7.3.9.8.5,1.6l-21,41.9V86.1a1,1,0,0,1-1.1,1.1C58.54,87.3,58.14,87,58.14,86.2Z"/></g></g></svg>
