<?xml version="1.0" encoding="utf-8"?>
<!-- Generator: Adobe Illustrator 22.1.0, SVG Export Plug-In . SVG Version: 6.00 Build 0)  -->
<svg version="1.1" id="Layer_1" xmlns="http://www.w3.org/2000/svg" xmlns:xlink="http://www.w3.org/1999/xlink" x="0px" y="0px"
	 viewBox="0 0 220 214" style="enable-background:new 0 0 220 214;" xml:space="preserve">
<style type="text/css">
	.st0{fill:#FFFFFF;stroke:#FFFFFF;}
</style>
<title>Artboard 1</title>
<g>
	<path class="st0" d="M25.8,164.7v-9.7l-4.9-9.7c0-0.2,0-0.3,0.1-0.4c0.1-0.1,0.3,0,0.3,0.1c0,0,0,0,0,0.1l4.6,9.3l4.6-9.3
		c0-0.1,0.2-0.2,0.3-0.2c0,0,0,0,0.1,0c0.1,0,0.2,0.2,0.2,0.3c0,0,0,0,0,0.1l-4.9,9.7v9.7c0,0.2-0.1,0.3-0.3,0.3
		C25.9,164.9,25.8,164.8,25.8,164.7z"/>
	<path class="st0" d="M34.4,162.4c-0.4-0.8-0.7-1.7-0.7-2.6V150c0-0.9,0.2-1.8,0.7-2.6c1.5-2.5,4.7-3.3,7.2-1.8
		c0.8,0.4,1.4,1.1,1.8,1.8c0.4,0.8,0.7,1.7,0.7,2.6v9.7c0,0.9-0.2,1.8-0.7,2.6c-1.5,2.5-4.7,3.3-7.2,1.8
		C35.5,163.7,34.9,163.1,34.4,162.4L34.4,162.4z M34.9,147.6c-0.4,0.7-0.6,1.6-0.6,2.4v9.7c0,0.8,0.2,1.6,0.6,2.4
		c1.4,2.2,4.3,2.9,6.5,1.5c0.6-0.4,1.1-0.9,1.5-1.5c0.4-0.7,0.6-1.6,0.6-2.4v-9.8c0-0.8-0.2-1.7-0.6-2.4c-1.4-2.2-4.3-2.9-6.5-1.5
		C35.8,146.4,35.3,146.9,34.9,147.6L34.9,147.6z"/>
	<path class="st0" d="M51.8,164.9c-1.9,0.1-3.6-0.9-4.5-2.6c-0.4-0.8-0.7-1.7-0.7-2.6V150c0-0.9,0.2-1.8,0.7-2.6
		c0.8-1.7,2.6-2.7,4.5-2.6h4.9c0.2,0,0.3,0,0.3,0.3c0,0.3-0.1,0.3-0.3,0.3h-4.9c-1.7-0.1-3.2,0.7-4,2.2c-0.4,0.7-0.6,1.6-0.6,2.4
		v9.7c0,0.8,0.2,1.6,0.6,2.4c0.8,1.5,2.3,2.4,4,2.3h4.6v-9.3h-4.6c-0.2,0-0.3-0.1-0.3-0.3c0-0.1,0.1-0.2,0.2-0.3c0,0,0,0,0.1,0h4.9
		c0.1,0,0.2,0.1,0.3,0.2c0,0,0,0,0,0.1v9.8c0,0.1-0.1,0.2-0.2,0.3c0,0,0,0-0.1,0L51.8,164.9z"/>
	<path class="st0" d="M69.9,164.6c0,0.2,0,0.3-0.2,0.3l0,0c-0.1,0-0.2-0.1-0.3-0.2l-2.4-9.6h-4.5l-2.4,9.6c0,0.1-0.1,0.2-0.3,0.2
		l0,0c-0.2,0-0.2-0.1-0.2-0.3l2.4-9.8l0,0l2.5-9.8c0-0.1,0.1-0.2,0.2-0.2c0.2,0,0.2,0,0.3,0.2l2.5,9.8l0,0L69.9,164.6z M66.8,154.5
		l-2.1-8.4l-2.1,8.4H66.8z"/>
	<path class="st0" d="M94.3,164.7l-4.6-18.6L85,164.7c0,0.1-0.1,0.2-0.3,0.2c-0.1,0-0.2-0.1-0.3-0.2l-4.8-19.6c0-0.1,0-0.3,0.2-0.3
		c0,0,0,0,0,0c0.1,0,0.3,0,0.3,0.2c0,0,0,0,0,0l4.6,18.6l4.6-18.6c0.1-0.1,0.2-0.2,0.4-0.2c0.1,0,0.1,0.1,0.2,0.2l4.6,18.6l4.6-18.6
		c0-0.1,0.1-0.2,0.3-0.2c0,0,0,0,0,0c0.1,0,0.2,0.1,0.2,0.3c0,0,0,0,0,0.1l-4.9,19.6c0,0.1-0.1,0.2-0.3,0.2
		C94.5,165,94.3,164.9,94.3,164.7C94.3,164.8,94.3,164.8,94.3,164.7z"/>
	<path class="st0" d="M112.6,164.6c0,0.2-0.1,0.3-0.2,0.3l0,0c-0.1,0-0.2-0.1-0.3-0.2l-2.4-9.6h-4.5l-2.4,9.6c0,0.1-0.1,0.2-0.3,0.2
		l0,0c-0.2,0-0.2-0.1-0.2-0.3l2.4-9.8l0,0l2.5-9.8c0-0.1,0.1-0.2,0.2-0.2c0.2,0,0.2,0,0.3,0.2l2.5,9.8l0,0L112.6,164.6z
		 M109.5,154.5l-2-8.4l-2.1,8.4H109.5z"/>
	<path class="st0" d="M124.9,164.8l-9.3-18.6v18.4c0,0.2-0.1,0.3-0.3,0.3c-0.1,0-0.2-0.1-0.3-0.2c0,0,0,0,0-0.1v-19.6
		c0-0.1,0.1-0.2,0.2-0.3c0.1,0,0.3,0,0.3,0.2l9.3,18.6v-18.4c0-0.2,0.1-0.3,0.3-0.3c0.2,0,0.3,0.1,0.3,0.3v19.6
		c0,0.1-0.1,0.2-0.2,0.2c0,0,0,0,0,0l0,0C125.1,164.9,125,164.9,124.9,164.8z"/>
	<path class="st0" d="M128.2,164.9c-0.1,0-0.2-0.1-0.3-0.2c0,0,0,0,0-0.1v-19.6c0-0.2,0.1-0.3,0.3-0.3h4.9c0.9,0,1.8,0.2,2.6,0.7
		c1.7,0.8,2.7,2.6,2.6,4.5v9.7c0.1,1.9-0.9,3.7-2.6,4.5c-0.8,0.4-1.7,0.7-2.6,0.7L128.2,164.9z M128.5,164.4h4.6
		c0.8,0,1.6-0.2,2.4-0.6c1.5-0.8,2.4-2.4,2.2-4V150c0.1-1.7-0.8-3.3-2.2-4c-0.7-0.4-1.6-0.6-2.4-0.6h-4.6V164.4z"/>
	<path class="st0" d="M141.1,164.9c-0.2,0-0.3-0.1-0.3-0.3v-19.6c0-0.2,0.1-0.3,0.3-0.3h9.8c0.2,0,0.3,0,0.3,0.3
		c0,0.3-0.1,0.3-0.3,0.3h-9.5v9.3h4.6c0.2,0,0.3,0.1,0.3,0.3s-0.1,0.3-0.3,0.3h-4.6v9.3h9.5c0.2,0,0.3,0.1,0.3,0.3
		c0,0.1-0.1,0.2-0.2,0.3c0,0,0,0-0.1,0L141.1,164.9z"/>
	<path class="st0" d="M163.6,164.8l-9.3-9.3v9.1c0,0.2-0.1,0.3-0.3,0.3c-0.1,0-0.2-0.1-0.3-0.2c0,0,0,0,0-0.1v-19.6
		c0-0.1,0.1-0.2,0.2-0.3c0,0,0,0,0.1,0h4.9c0.9,0,1.8,0.2,2.6,0.6c2.5,1.5,3.3,4.7,1.8,7.2c-0.4,0.8-1.1,1.4-1.8,1.8
		c-0.8,0.4-1.7,0.6-2.6,0.7h-4.2l9.3,9.3c0.1,0.1,0.1,0.3,0,0.4c-0.1,0-0.1,0-0.2,0C163.7,164.8,163.6,164.9,163.6,164.8z
		 M154.3,154.6h4.6c0.8,0,1.6-0.2,2.4-0.6c2.2-1.4,2.9-4.3,1.5-6.5c-0.4-0.6-0.9-1.1-1.5-1.5c-0.7-0.4-1.6-0.6-2.4-0.6h-4.6V154.6z"
		/>
	<path class="st0" d="M166.9,164.9c-0.1,0-0.2-0.1-0.3-0.2c0,0,0,0,0-0.1v-19.6c0-0.1,0.1-0.2,0.2-0.3c0,0,0,0,0.1,0h9.8
		c0.1,0,0.2,0.1,0.3,0.2c0,0,0,0,0,0.1c0,0.2-0.1,0.3-0.3,0.3h-9.5v9.3h4.6c0.2,0,0.3,0.1,0.3,0.3c0,0.1-0.1,0.3-0.2,0.3
		c0,0,0,0-0.1,0h-4.6v9.3h9.5c0.2,0,0.3,0.1,0.3,0.3c0,0.1-0.1,0.2-0.2,0.3c0,0,0,0-0.1,0L166.9,164.9z"/>
	<path class="st0" d="M189.3,164.8l-9.3-9.3v9.1c0,0.2-0.1,0.3-0.3,0.3c-0.1,0-0.2-0.1-0.3-0.2c0,0,0,0,0-0.1v-19.6
		c0-0.1,0.1-0.2,0.2-0.3c0,0,0,0,0.1,0h4.9c0.9,0,1.8,0.2,2.6,0.6c2.5,1.5,3.3,4.7,1.8,7.2c-0.4,0.8-1.1,1.4-1.8,1.8
		c-0.8,0.4-1.7,0.6-2.6,0.7h-4.2l9.3,9.3c0.1,0.1,0.1,0.2,0,0.3c0,0,0,0,0,0C189.6,164.9,189.4,164.9,189.3,164.8L189.3,164.8z
		 M180,154.6h4.6c0.8,0,1.7-0.2,2.4-0.6c2.2-1.4,2.9-4.3,1.5-6.5c-0.4-0.6-0.9-1.1-1.5-1.5c-0.7-0.4-1.6-0.6-2.4-0.6H180V154.6z"/>
	<path class="st0" d="M192.6,164.9c-0.1,0-0.2-0.1-0.3-0.2c0,0,0,0,0-0.1c0-0.2,0.1-0.3,0.3-0.3h4.9c0.8,0,1.7-0.2,2.4-0.6
		c2.2-1.4,2.9-4.3,1.5-6.5c-0.4-0.6-0.9-1.1-1.5-1.5c-0.7-0.4-1.6-0.6-2.4-0.6c-0.9,0-1.8-0.2-2.6-0.7c-2.5-1.5-3.3-4.7-1.8-7.2
		c0.4-0.8,1.1-1.4,1.8-1.8c0.8-0.4,1.7-0.7,2.6-0.7h4.9c0.2,0,0.3,0.1,0.3,0.3c0,0.1-0.1,0.2-0.2,0.3c0,0,0,0-0.1,0h-4.9
		c-0.8,0-1.6,0.2-2.4,0.6c-2.2,1.4-2.9,4.3-1.5,6.5c0.4,0.6,0.9,1.1,1.5,1.5c0.7,0.4,1.6,0.6,2.4,0.6c0.9,0,1.8,0.2,2.6,0.7
		c2.5,1.5,3.3,4.7,1.8,7.2c-0.4,0.7-1.1,1.4-1.8,1.8c-0.8,0.4-1.7,0.7-2.6,0.7H192.6z"/>
	<path class="st0" d="M110.7,125.1V83.2L89.8,41.2c-0.2-0.6,0-1.3,0.6-1.5c0.5-0.2,1.1,0,1.4,0.4l20.1,40.1l20-40.1
		c0.2-0.5,0.7-0.8,1.3-0.6c0.1,0,0.2,0.1,0.3,0.2c0.5,0.1,0.9,0.7,0.7,1.2c0,0.1-0.1,0.2-0.2,0.3l-21,41.9v41.9
		c0.1,0.5-0.3,1.1-0.8,1.2c-0.1,0-0.2,0-0.3,0C111.1,126.2,110.7,125.9,110.7,125.1z"/>
</g>
</svg>
