<svg id="Layer_1" data-name="Layer 1" xmlns="http://www.w3.org/2000/svg" viewBox="0 0 220 214"><defs><style>.cls-1{fill:#fff;stroke:#fff;}</style></defs><title>Artboard 1</title><path class="cls-1" d="M56.21,161.21v-6.29l-3.14-6.29c0-.11,0-.19.07-.24a.16.16,0,0,1,.24.08l3,6,3-6a.15.15,0,0,1,.23-.08.16.16,0,0,1,.08.24l-3.14,6.29v6.29c0,.11-.06.17-.18.17S56.21,161.32,56.21,161.21Z"/><path class="cls-1" d="M61.79,159.72a3.62,3.62,0,0,1-.43-1.68v-6.33a3.62,3.62,0,0,1,.43-1.68,3.38,3.38,0,0,1,5.82,0,3.62,3.62,0,0,1,.43,1.68V158a3.62,3.62,0,0,1-.43,1.68,3.38,3.38,0,0,1-5.82,0Zm.31-9.56a3.36,3.36,0,0,0-.39,1.55V158a3.29,3.29,0,0,0,.39,1.54,3.06,3.06,0,0,0,5.2,0,3.29,3.29,0,0,0,.39-1.54v-6.33a3.36,3.36,0,0,0-.39-1.55,3.07,3.07,0,0,0-5.2,0Z"/><path class="cls-1" d="M73,161.38a3,3,0,0,1-2.9-1.66,3.51,3.51,0,0,1-.44-1.68v-6.33a3.51,3.51,0,0,1,.44-1.68,3,3,0,0,1,2.9-1.66h3.16c.12,0,.18,0,.18.17s-.06.18-.17.18H73a2.69,2.69,0,0,0-2.6,1.44,3.36,3.36,0,0,0-.39,1.55V158a3.29,3.29,0,0,0,.39,1.54A2.68,2.68,0,0,0,73,161h3v-6H73c-.12,0-.17-.06-.17-.18a.15.15,0,0,1,.17-.17H76.2a.15.15,0,0,1,.17.17v6.34a.15.15,0,0,1-.17.17Z"/><path class="cls-1" d="M84.71,161.16c0,.12,0,.19-.13.21h0a.16.16,0,0,1-.17-.13l-1.55-6.2H79.93l-1.55,6.2a.16.16,0,0,1-.18.13h0c-.12,0-.16-.09-.13-.21l1.58-6.32h0l1.59-6.34a.15.15,0,0,1,.16-.12c.1,0,.16,0,.17.12l1.59,6.34h0Zm-2-6.49-1.36-5.45L80,154.67Z"/><path class="cls-1" d="M100.48,161.25l-3-12-3,12a.17.17,0,0,1-.18.13.16.16,0,0,1-.17-.13L91,148.59a.17.17,0,0,1,.13-.22.16.16,0,0,1,.21.13l3,12,3-12a.18.18,0,0,1,.34,0l3,12,3-12a.16.16,0,0,1,.21-.13.16.16,0,0,1,.13.22l-3.17,12.66a.16.16,0,0,1-.17.13A.14.14,0,0,1,100.48,161.25Z"/><path class="cls-1" d="M112.31,161.16q0,.18-.12.21h0a.16.16,0,0,1-.17-.13l-1.55-6.2h-2.89l-1.55,6.2a.16.16,0,0,1-.18.13h0c-.12,0-.16-.09-.13-.21l1.58-6.32h0l1.59-6.34a.15.15,0,0,1,.16-.12c.1,0,.16,0,.17.12l1.59,6.34h0Zm-2-6.49L109,149.22l-1.37,5.45Z"/><path class="cls-1" d="M120.3,161.28l-6-12v11.92c0,.11-.06.17-.18.17a.15.15,0,0,1-.17-.17V148.55a.17.17,0,0,1,.13-.18.18.18,0,0,1,.2.1l6,12V148.55a.18.18,0,0,1,.36,0v12.66a.15.15,0,0,1-.14.16h0A.17.17,0,0,1,120.3,161.28Z"/><path class="cls-1" d="M122.44,161.38a.15.15,0,0,1-.17-.17V148.55c0-.12.06-.18.17-.18h3.17a3.62,3.62,0,0,1,1.68.43,3,3,0,0,1,1.66,2.91V158a3,3,0,0,1-1.66,2.91,3.62,3.62,0,0,1-1.68.43Zm.18-.35h3a3.29,3.29,0,0,0,1.54-.39,2.68,2.68,0,0,0,1.45-2.6v-6.33a2.69,2.69,0,0,0-1.45-2.6,3.29,3.29,0,0,0-1.54-.39h-3Z"/><path class="cls-1" d="M130.75,161.38c-.12,0-.18-.06-.18-.17V148.54c0-.12.06-.17.18-.17h6.33c.12,0,.17,0,.17.17s-.05.18-.17.18h-6.15v6h3c.13,0,.19.06.19.17s-.06.18-.19.18h-3v6h6.15c.12,0,.17.06.17.18a.15.15,0,0,1-.17.17Z"/><path class="cls-1" d="M145.27,161.33l-6-6v5.91c0,.11-.06.17-.18.17a.15.15,0,0,1-.17-.17V148.54a.15.15,0,0,1,.17-.17h3.17a3.83,3.83,0,0,1,1.69.42,3.39,3.39,0,0,1,0,5.83,3.85,3.85,0,0,1-1.69.43h-2.74l6,6c.09.09.09.17,0,.25a.18.18,0,0,1-.12,0A.19.19,0,0,1,145.27,161.33Zm-6-6.64h3a3.43,3.43,0,0,0,1.54-.38,3.07,3.07,0,0,0,0-5.21,3.32,3.32,0,0,0-1.54-.39h-3Z"/><path class="cls-1" d="M147.41,161.38a.15.15,0,0,1-.17-.17V148.54a.15.15,0,0,1,.17-.17h6.34a.15.15,0,0,1,.17.17c0,.12-.06.18-.17.18h-6.16v6h3c.12,0,.18.06.18.17a.16.16,0,0,1-.18.18h-3v6h6.16c.11,0,.17.06.17.18a.15.15,0,0,1-.17.17Z"/><path class="cls-1" d="M161.93,161.33l-6-6v5.91c0,.11-.06.17-.19.17a.15.15,0,0,1-.17-.17V148.54a.15.15,0,0,1,.17-.17h3.17a3.8,3.8,0,0,1,1.69.42,3.39,3.39,0,0,1,0,5.83,3.82,3.82,0,0,1-1.69.43h-2.74l6,6a.16.16,0,0,1,0,.25.19.19,0,0,1-.26,0Zm-6-6.64h3a3.47,3.47,0,0,0,1.55-.38,3.07,3.07,0,0,0,0-5.21,3.36,3.36,0,0,0-1.55-.39h-3Z"/><path class="cls-1" d="M164.07,161.38a.15.15,0,0,1-.17-.17c0-.12.06-.18.17-.18h3.17a3.36,3.36,0,0,0,1.55-.39,3.06,3.06,0,0,0,0-5.2,3.36,3.36,0,0,0-1.55-.39,3.81,3.81,0,0,1-1.68-.43,3.38,3.38,0,0,1,0-5.82,3.68,3.68,0,0,1,1.68-.43h3.17c.12,0,.17.06.17.18a.15.15,0,0,1-.17.17h-3.17a3.32,3.32,0,0,0-1.54.39,3.07,3.07,0,0,0,0,5.2,3.58,3.58,0,0,0,1.54.39,3.69,3.69,0,0,1,1.69.43,3.39,3.39,0,0,1,0,5.82,3.69,3.69,0,0,1-1.69.43Z"/><path class="cls-1" d="M110.71,125.1V83.16L89.77,41.23a1.17,1.17,0,0,1,2.06-1.09l20.09,40.12,20-40.12a1,1,0,0,1,1.57-.48,1,1,0,0,1,.54,1.57l-21,41.93V125.1a1,1,0,0,1-1.15,1.15C111.11,126.25,110.71,125.86,110.71,125.1Z"/></svg>