<svg id="Layer_1" data-name="Layer 1" xmlns="http://www.w3.org/2000/svg" viewBox="0 0 220 214"><defs><style>.cls-1{fill:#fff;stroke:#fff;}</style></defs><title>Artboard 1</title><path class="cls-1" d="M25.81,164.66v-9.72L21,145.21c0-.17,0-.3.11-.37a.24.24,0,0,1,.34.06l0,.06,4.64,9.28L30.71,145a.24.24,0,0,1,.29-.16l.06,0a.25.25,0,0,1,.16.31l0,.06-4.86,9.73v9.72a.25.25,0,0,1-.28.27C25.87,164.93,25.81,164.83,25.81,164.66Z"/><path class="cls-1" d="M34.44,162.36a5.62,5.62,0,0,1-.67-2.6V150a5.62,5.62,0,0,1,.67-2.6,5.23,5.23,0,0,1,9,0,5.61,5.61,0,0,1,.66,2.6v9.73a5.61,5.61,0,0,1-.66,2.6,5.23,5.23,0,0,1-7.16,1.84,5.15,5.15,0,0,1-1.84-1.84Zm.48-14.79a5.15,5.15,0,0,0-.61,2.4v9.73a5.07,5.07,0,0,0,.61,2.38,4.72,4.72,0,0,0,6.51,1.53A4.86,4.86,0,0,0,43,162.08a5.06,5.06,0,0,0,.6-2.38v-9.79a5.14,5.14,0,0,0-.6-2.4,4.76,4.76,0,0,0-6.55-1.5,4.85,4.85,0,0,0-1.49,1.5Z"/><path class="cls-1" d="M51.77,164.93a4.63,4.63,0,0,1-4.48-2.57,5.39,5.39,0,0,1-.68-2.6V150a5.39,5.39,0,0,1,.68-2.6,4.65,4.65,0,0,1,4.48-2.57h4.89c.19,0,.28,0,.28.27s-.09.28-.26.28H51.77a4.15,4.15,0,0,0-4,2.22,5.14,5.14,0,0,0-.6,2.4v9.73a5.06,5.06,0,0,0,.6,2.38,4.15,4.15,0,0,0,4,2.26h4.64v-9.28H51.77c-.18,0-.26-.09-.26-.28a.23.23,0,0,1,.2-.26.06.06,0,0,1,.06,0h4.95a.24.24,0,0,1,.27.19v9.88a.23.23,0,0,1-.2.26h-.07Z"/><path class="cls-1" d="M69.89,164.59c0,.18,0,.29-.21.32h0a.25.25,0,0,1-.26-.2L67,155.12H62.49l-2.39,9.59a.25.25,0,0,1-.28.2h0c-.19,0-.25-.14-.2-.32l2.44-9.78h0l2.46-9.8a.23.23,0,0,1,.25-.19c.15,0,.24,0,.26.19l2.46,9.8h0Zm-3.1-10-2.1-8.43-2.09,8.43Z"/><path class="cls-1" d="M94.28,164.73l-4.64-18.56L85,164.73a.27.27,0,0,1-.28.2.24.24,0,0,1-.26-.2l-4.85-19.58a.28.28,0,0,1,.17-.34h0a.25.25,0,0,1,.31.16.43.43,0,0,1,0,0l4.64,18.56L89.42,145a.28.28,0,0,1,.36-.18A.3.3,0,0,1,90,145l4.64,18.56L99.23,145a.26.26,0,0,1,.28-.22h0a.25.25,0,0,1,.22.28.25.25,0,0,1,0,.07l-4.9,19.58a.25.25,0,0,1-.26.2.22.22,0,0,1-.29-.11A.15.15,0,0,1,94.28,164.73Z"/><path class="cls-1" d="M112.57,164.59c0,.18-.06.29-.18.32h0a.23.23,0,0,1-.26-.2l-2.4-9.59h-4.47l-2.4,9.59a.25.25,0,0,1-.28.2h0c-.18,0-.24-.14-.2-.32l2.45-9.78h0l2.46-9.8a.22.22,0,0,1,.24-.19c.16,0,.25,0,.27.19l2.45,9.8h0Zm-3.09-10-2-8.43-2.12,8.43Z"/><path class="cls-1" d="M124.93,164.77l-9.28-18.56v18.44c0,.17-.09.26-.28.26a.23.23,0,0,1-.26-.19V145.08a.27.27,0,0,1,.2-.28.28.28,0,0,1,.31.16l9.28,18.56V145.08a.28.28,0,0,1,.56,0v19.58a.24.24,0,0,1-.22.25h0A.26.26,0,0,1,124.93,164.77Z"/><path class="cls-1" d="M128.24,164.93a.23.23,0,0,1-.26-.2V145.08c0-.18.09-.28.26-.28h4.91a5.61,5.61,0,0,1,2.59.67,4.63,4.63,0,0,1,2.57,4.5v9.73a4.63,4.63,0,0,1-2.57,4.5,5.61,5.61,0,0,1-2.59.67Zm.28-.54h4.64a5.07,5.07,0,0,0,2.38-.61,4.16,4.16,0,0,0,2.25-4V150a4.16,4.16,0,0,0-2.25-4,5.06,5.06,0,0,0-2.38-.6h-4.64Z"/><path class="cls-1" d="M141.1,164.93a.25.25,0,0,1-.28-.27V145.07c0-.19.09-.27.28-.27h9.79c.18,0,.26,0,.26.27s-.08.28-.26.28h-9.52v9.28H146c.21,0,.3.09.3.26s-.09.28-.3.28h-4.64v9.28h9.52c.18,0,.26.09.26.28a.23.23,0,0,1-.2.26h-.06Z"/><path class="cls-1" d="M163.55,164.85l-9.28-9.28v9.14a.28.28,0,0,1-.54.07V145.07a.24.24,0,0,1,.2-.27h5a6.07,6.07,0,0,1,2.61.65,5.25,5.25,0,0,1,1.83,7.19,5.17,5.17,0,0,1-1.83,1.83,6,6,0,0,1-2.61.67h-4.24l9.28,9.28c.14.14.14.26,0,.38a.31.31,0,0,1-.19,0A.28.28,0,0,1,163.55,164.85Zm-9.28-10.27h4.64a5.38,5.38,0,0,0,2.39-.59,4.75,4.75,0,0,0,1.51-6.54,4.87,4.87,0,0,0-1.51-1.52,5.26,5.26,0,0,0-2.39-.6h-4.64Z"/><path class="cls-1" d="M166.86,164.93a.23.23,0,0,1-.26-.2V145.07a.24.24,0,0,1,.2-.27h9.87a.23.23,0,0,1,.26.2.09.09,0,0,1,0,.07c0,.18-.09.28-.26.28h-9.53v9.28h4.64c.19,0,.28.09.28.26a.25.25,0,0,1-.21.28h-4.71v9.28h9.53c.17,0,.26.09.26.28a.23.23,0,0,1-.19.26h-.07Z"/><path class="cls-1" d="M189.32,164.85,180,155.57v9.14c0,.17-.09.26-.29.26a.24.24,0,0,1-.27-.19V145.07a.24.24,0,0,1,.2-.27h5a6,6,0,0,1,2.61.65,5.23,5.23,0,0,1,0,9,5.91,5.91,0,0,1-2.61.67h-4.24l9.28,9.28a.23.23,0,0,1,0,.34.08.08,0,0,1,0,0,.28.28,0,0,1-.4,0ZM180,154.58h4.64a5.39,5.39,0,0,0,2.4-.59,4.76,4.76,0,0,0,1.52-6.54,5,5,0,0,0-1.52-1.52,5.27,5.27,0,0,0-2.4-.6H180Z"/><path class="cls-1" d="M192.63,164.93a.23.23,0,0,1-.26-.2v-.07a.24.24,0,0,1,.26-.27h4.9a5.28,5.28,0,0,0,2.4-.61,4.73,4.73,0,0,0,0-8,5.14,5.14,0,0,0-2.4-.6,5.86,5.86,0,0,1-2.59-.67,5.22,5.22,0,0,1,0-9,5.73,5.73,0,0,1,2.59-.67h4.91c.18,0,.26.1.26.28a.24.24,0,0,1-.2.27h-5a5.09,5.09,0,0,0-2.38.6,4.74,4.74,0,0,0-1.49,6.55,4.82,4.82,0,0,0,1.49,1.49,5.53,5.53,0,0,0,2.38.61,5.57,5.57,0,0,1,2.62.66,5.24,5.24,0,0,1,0,9,5.7,5.7,0,0,1-2.62.67Z"/><path class="cls-1" d="M110.71,125.1V83.16L89.77,41.23a1.17,1.17,0,0,1,2.06-1.09l20.09,40.12,20-40.12a1,1,0,0,1,1.26-.65,1.17,1.17,0,0,1,.31.17,1,1,0,0,1,.71,1.22.88.88,0,0,1-.17.35L113,83.16V125.1a1,1,0,0,1-.82,1.15.92.92,0,0,1-.33,0A1,1,0,0,1,110.71,125.1Z"/></svg>